<?xml version="1.0" encoding="UTF-8"?> <svg xmlns="http://www.w3.org/2000/svg" viewBox="0 0 148.39 76.47"><defs><style>.cls-1{font-size:10.56px;font-family:Arial-BoldMT, Arial;font-weight:700;letter-spacing:-0.01em;}.cls-1,.cls-4{fill:#fff;}.cls-2{letter-spacing:-0.05em;}.cls-3{letter-spacing:-0.05em;}.cls-5{fill:#46bcaa;}.cls-6{fill:#a3cc3c;}.cls-7{fill:#016c61;}</style></defs><title>Asset 2</title><g id="Layer_2" data-name="Layer 2"><g id="Layer_1-2" data-name="Layer 1"><text class="cls-1" transform="translate(0 60.61)">The<tspan class="cls-2" x="18.46" y="0"> </tspan><tspan x="20.9" y="0">Association to</tspan><tspan class="cls-3" x="92.21" y="0"> </tspan><tspan x="94.65" y="0">Advance</tspan><tspan x="0" y="11.88">Collegiate School of Business</tspan></text><path class="cls-4" d="M27.71,45.15c1.36-3.63,2.61-6.95,3.85-10.28,2-5.41,4.05-10.82,6-16.24.33-.91.73-1.42,1.78-1.29a18.11,18.11,0,0,0,2.21,0c2.88,0,2.88,0,3.85,2.6L54.82,45.2c.18.48.34,1,.56,1.61H49c-.47-1.31-.92-2.7-1.49-4.05-.16-.38-.66-.86-1-.86-3.73-.06-7.47,0-11.28,0-.5,1.44-.92,2.84-1.5,4.18a1.65,1.65,0,0,1-1.19.85c-3.47.07-6.95,0-10.58,0l-1.85-5.07c-3.71,0-7.45,0-11.18,0a1.52,1.52,0,0,0-1.07.79c-.63,1.37-.82,3.62-1.78,4-1.68.66-3.82.18-6,.18.18-.55.32-1,.49-1.49q5-13.37,9.93-26.73a1.64,1.64,0,0,1,1.93-1.32c1.61.14,3.6-.43,4.75.33s1.3,2.74,1.85,4.21c2.72,7.22,5.41,14.46,8.12,21.69C27.26,44,27.42,44.4,27.71,45.15ZM14.07,24.76,10,36.32h8.1Zm27.11,0c-1.44,4.11-2.72,7.8-4,11.55h8.09C43.89,32.5,42.61,28.84,41.18,24.76Z"></path><path class="cls-4" d="M107.81,46.89V17.36c1,0,2,0,3,0,3.84.05,7.7-.08,11.53.21,5.44.43,8.58,4.87,7.31,10A7.12,7.12,0,0,1,126,32c2.5,1.33,4.1,3.16,4.27,6,.32,5.13-2.73,8.65-8.06,8.88C117.46,47.05,112.71,46.89,107.81,46.89Zm5.9-12.11v6.71c2.5,0,4.87.08,7.23,0a3.07,3.07,0,0,0,3.28-3.27,3,3,0,0,0-3.14-3.39C118.68,34.67,116.26,34.78,113.71,34.78Zm0-11.83v6.3c2.43,0,4.74.07,7,0a2.94,2.94,0,0,0,3.06-3.09A2.93,2.93,0,0,0,121,23C118.56,22.85,116.16,23,113.71,23Z"></path><path class="cls-4" d="M82.71,37.65h5.63c1.2,4.51,4.83,5,8.3,4.14a3.07,3.07,0,0,0,2.71-2.87,2.83,2.83,0,0,0-2.31-3c-2.05-.66-4.17-1.09-6.24-1.69-3-.89-5.73-2.23-6.72-5.57a8.8,8.8,0,0,1,5.26-11,12.76,12.76,0,0,1,10.29.16c3.65,1.67,5.37,4.68,5.68,8.71H99.58c-1.42-3.87-4-5.27-7.46-4a3.13,3.13,0,0,0-2.42,2.79,2.75,2.75,0,0,0,2.19,2.91c1.79.6,3.64,1,5.46,1.53,1,.29,2,.6,3,1a7.48,7.48,0,0,1,5.13,6.75,7.8,7.8,0,0,1-3.56,7.76,14.11,14.11,0,0,1-14.58.7A8.89,8.89,0,0,1,82.71,37.65Z"></path><path class="cls-4" d="M81.65,37.54c-.9,4.84-5.38,8.83-10.66,9.68-6.85,1.1-12.77-1.52-15.79-7-3.2-5.77-2.54-14,1.7-18.66s9.67-5.77,15.59-4.19c5.43,1.46,8.58,5.21,9.69,10.92-2,0-3.87,0-5.75,0a1.27,1.27,0,0,1-.88-.61c-2-4.05-4.66-5.58-9-5a7.37,7.37,0,0,0-6.67,6.75,19.66,19.66,0,0,0,.53,7.28c.74,2.86,3,4.51,6,4.89,3.22.41,6.06-.25,8.17-3a2.84,2.84,0,0,1,1.87-1C78.15,37.45,79.84,37.54,81.65,37.54Z"></path><path class="cls-5" d="M147.79,10.23V30.45a7.82,7.82,0,0,1-.95-.71c-2.82-2.84-5.65-5.66-8.41-8.56a3.18,3.18,0,0,1-.77-1.92c-.1-3-.08-6-.11-9a.77.77,0,0,1,.25-.1Z"></path><path class="cls-6" d="M137.8,10.18a.77.77,0,0,0-.25.1c-3,0-5.9,0-8.85,0A2.66,2.66,0,0,1,127,9.68c-3.05-3-6-6-9-9A3.49,3.49,0,0,1,117.6,0h20.17Z"></path><path class="cls-7" d="M137.8,10.18l0-10.18h10V10.23Z"></path></g></g></svg> 