<?xml version="1.0" encoding="UTF-8"?> <svg xmlns="http://www.w3.org/2000/svg" viewBox="0 0 183.92 64.33"><defs><style>.cls-1{fill:#fff;}</style></defs><title>Asset 2</title><g id="Layer_2" data-name="Layer 2"><g id="Layer_1-2" data-name="Layer 1"><path class="cls-1" d="M26.18.74c.1,1.3.18,2.61.3,3.91.22,2.37.43,4.73.69,7.09a40.7,40.7,0,0,0,1,5.81c.33,1.29.79,2.55,1.23,3.81a38.34,38.34,0,0,1,1.54,5.27,13.58,13.58,0,0,1,.26,3.54,8.36,8.36,0,0,1-.51,2.42,4.3,4.3,0,0,1-.28.57c-.22.38-.36.42-.75.23l-.4-.2A2.27,2.27,0,0,0,27.7,33c-.13,0-.22.08-.24.23a5.93,5.93,0,0,0,0,2.1,4,4,0,0,0,1.82,2.48,6.55,6.55,0,0,0,2.78,1,11.82,11.82,0,0,0,7.54-1.48,6.39,6.39,0,0,0,2.83-3,5,5,0,0,0,.28-3.57,4.61,4.61,0,0,0-1.39-2.07c-.52-.46-1.09-.86-1.64-1.28-1.33-1-2.67-2-4-3a7,7,0,0,1-.94-1,9.9,9.9,0,0,1-2.41-6c.1.11.16.15.2.21.34.52.68,1,1,1.56A9.35,9.35,0,0,0,37,22.37a27.06,27.06,0,0,0,4.18,1.81c1.32.46,2.66.86,3.93,1.45a20.12,20.12,0,0,1,4.37,2.78,7.73,7.73,0,0,1,2,2.48,6,6,0,0,1,.33,4.47,12.11,12.11,0,0,1-1.31,2.94l-.56.92.3.28A6.19,6.19,0,0,1,52,41.79a.56.56,0,0,1,.05.5c-.15,0-.3-.06-.45-.11-.95-.33-1.89-.65-2.83-1a15.75,15.75,0,0,0-4.24-.86,40.76,40.76,0,0,0-5.3.06c-2.05.11-4.08.42-6.11.68l-.84.1,0,.07a3.28,3.28,0,0,0,.34.31A33.58,33.58,0,0,0,36,43.86a50.15,50.15,0,0,0,6,3.15,9.17,9.17,0,0,0,3.62.68A7.21,7.21,0,0,0,48.76,47a13,13,0,0,0,2.66-1.68c.17-.14.3-.32.5-.52a1.64,1.64,0,0,1,.06.25,5,5,0,0,1-.72,2.28,9.08,9.08,0,0,1-1.44,1.83,5.94,5.94,0,0,1-3.61,1.64,8.52,8.52,0,0,1-5.41-1.31,42,42,0,0,1-4.42-3.07c-1-.72-1.91-1.44-2.9-2.13a12.15,12.15,0,0,0-3.84-1.88l-.17,0a.74.74,0,0,0,0,.21A8.85,8.85,0,0,0,32.05,47a5,5,0,0,0,2.83,1.28l2.35.32.32.07a2.3,2.3,0,0,1-.06.28,3.44,3.44,0,0,1-1,1.38,2.42,2.42,0,0,1-2.08.43,5.18,5.18,0,0,1-2.61-1.33,12.79,12.79,0,0,1-3.2-4c-.22-.47-.51-.91-.77-1.35a2.87,2.87,0,0,0-.25-.33.74.74,0,0,0-.06.18,13.45,13.45,0,0,0,.66,4.12c.2.58.4,1.17.59,1.75.06.2.09.4.15.65l-.24,0a2.71,2.71,0,0,0-2.26.08.74.74,0,0,1-.72,0,2.47,2.47,0,0,0-2.09-.08,1.23,1.23,0,0,1-.25.08,3.51,3.51,0,0,1,.08-.42c.22-.72.43-1.45.67-2.16a12.14,12.14,0,0,0,.62-3.68c0-.1,0-.2,0-.3s0,0,0-.07-.21.16-.27.27c-.26.42-.53.84-.75,1.28a12.62,12.62,0,0,1-2.75,3.65,6.38,6.38,0,0,1-2.48,1.58,3.23,3.23,0,0,1-1.87.11,3,3,0,0,1-1.94-2l.5-.09c.69-.1,1.37-.2,2.06-.28A5.54,5.54,0,0,0,21.09,46a10.52,10.52,0,0,0,1.53-2.91c.07-.2.1-.42.16-.66a2.1,2.1,0,0,0-.87.2,11.68,11.68,0,0,0-2.84,1.44c-1.13.79-2.26,1.6-3.36,2.44a38.94,38.94,0,0,1-4.52,3.11,9.25,9.25,0,0,1-3.34,1.17,6.33,6.33,0,0,1-5.41-1.54A7.2,7.2,0,0,1,.55,46.58a7.47,7.47,0,0,1-.3-1.15,2.8,2.8,0,0,1,0-.59l.2.17a9.23,9.23,0,0,0,5,2.58,8.82,8.82,0,0,0,4.86-.66,30.16,30.16,0,0,0,4.41-2.28c.83-.5,1.67-1,2.49-1.47s1.63-1.08,2.44-1.62a3.52,3.52,0,0,0,.41-.35l-.43-.09c-.92-.11-1.83-.25-2.75-.34-1.48-.16-3-.3-4.43-.43-.77-.06-1.53-.12-2.3-.11-1.06,0-2.12.1-3.18.15a14.73,14.73,0,0,0-4.19,1L.51,42.2a4.17,4.17,0,0,1-.51.09v-.07a.64.64,0,0,0,.13-.17,5.73,5.73,0,0,1,1.8-2.53,2.36,2.36,0,0,0,.29-.33L1.4,37.8A9.08,9.08,0,0,1,.14,34.28V32.79c.09-.38.16-.77.28-1.15A7.2,7.2,0,0,1,2.58,28.5a18.15,18.15,0,0,1,4.58-2.91,39.44,39.44,0,0,1,3.93-1.46,22.59,22.59,0,0,0,4-1.71,9.58,9.58,0,0,0,3.54-3.3c.28-.44.57-.87.85-1.3.07-.11.15-.21.23-.32l.09,0c0,.24-.05.47-.09.71a9.93,9.93,0,0,1-3,6,22.51,22.51,0,0,1-3.24,2.52,20.39,20.39,0,0,0-2.58,1.93,4.38,4.38,0,0,0-1.59,4,5.19,5.19,0,0,0,2.18,3.84c.27.18.52.38.79.56a7,7,0,0,0,1,.65,12,12,0,0,0,6.41,1.19,7.31,7.31,0,0,0,2.26-.53,4.9,4.9,0,0,0,1.89-1.27,4.22,4.22,0,0,0,.91-3.82.27.27,0,0,0-.24-.24,2.28,2.28,0,0,0-1.34.14c-.21.08-.41.18-.61.27a.47.47,0,0,1-.69-.23,4.53,4.53,0,0,1-.34-.74A9.22,9.22,0,0,1,21,28.68a18,18,0,0,1,.75-4c.56-1.8,1.17-3.59,1.76-5.39a18.2,18.2,0,0,0,.83-2.88c.16-1.13.34-2.25.49-3.38s.26-2.21.38-3.31.22-2.29.33-3.43c.09-.89.18-1.77.25-2.66.09-1,.16-2.1.24-3.14Z"></path><path class="cls-1" d="M145,64.33a2.83,2.83,0,0,0-.4-.17,3.91,3.91,0,0,1-2.78-3A4,4,0,0,1,145,56.41a4.81,4.81,0,0,1,4.19,1.1l.29.28-.55.54c-.14-.11-.26-.2-.37-.3a4.32,4.32,0,0,0-2.18-.94,3.4,3.4,0,0,0-3.7,2.49,3,3,0,0,0,1,3.15,3.49,3.49,0,0,0,3.36.76,2.61,2.61,0,0,0,2-1.93c0-.08,0-.17,0-.3l-.41,0h-1.55l-.43,0v-.64a18.21,18.21,0,0,1,3.24,0,1.57,1.57,0,0,1,0,.23,3.48,3.48,0,0,1-2.69,3.45c-.09,0-.17.08-.26.12Z"></path><path class="cls-1" d="M76.93,64.33c-.15-.07-.3-.15-.46-.21a4,4,0,0,1,.37-7.69A4,4,0,0,1,79,64.19l-.29.14Zm.9-.74a3.19,3.19,0,0,0,3.26-3.26,3.23,3.23,0,1,0-6.46,0A3.16,3.16,0,0,0,77.83,63.59Z"></path><path class="cls-1" d="M67.74,64.33a3.49,3.49,0,0,0-.34-.15,4,4,0,1,1,5.12-4.82,4,4,0,0,1-2.78,4.84,1.94,1.94,0,0,0-.3.13Zm4.09-4a3.24,3.24,0,1,0-6.47,0,3.24,3.24,0,1,0,6.47,0Z"></path><path class="cls-1" d="M94.07,64.33l-.43-.2a4,4,0,1,1,2.44.08c-.1,0-.2.08-.3.12Zm-2.31-4a3.23,3.23,0,1,0,6.46,0,3.23,3.23,0,1,0-6.46,0Z"></path><path class="cls-1" d="M51.78,64.33a2.75,2.75,0,0,0-.36-.15,4,4,0,0,1,1.21-7.87,4.16,4.16,0,0,1,2.82.93c.23.19.41.42.65.65l-.59.47L55.13,58a3.45,3.45,0,0,0-5.06.37,3.18,3.18,0,0,0-.34,3.4,3.09,3.09,0,0,0,2.79,1.84,3.36,3.36,0,0,0,2.78-1l.11-.1.11-.05.56.42c-.14.16-.25.29-.37.41a4.09,4.09,0,0,1-1.7.95,2.35,2.35,0,0,0-.37.14Z"></path><path class="cls-1" d="M44.59,64.33a3.41,3.41,0,0,0-.33-.17,3,3,0,0,1-1.38-1.44l.6-.36c.23.29.41.55.63.78a1.25,1.25,0,0,0,1.17.44,1.93,1.93,0,0,0,.74-.3,1.18,1.18,0,0,0,.22-1.74,6,6,0,0,0-.91-.91c-.37-.33-.77-.62-1.16-.93a2.16,2.16,0,0,1-.76-1.11,1.82,1.82,0,0,1,2.21-2.23,2.37,2.37,0,0,1,1.56,1.21l-.26.23L46.6,58l-.44-.49a1.27,1.27,0,0,0-1.1-.41,1,1,0,0,0-.87,1.27,1.51,1.51,0,0,0,.58.8c.33.26.67.49,1,.76a12.36,12.36,0,0,1,.93.84,2.06,2.06,0,0,1,.63,1.27A2,2,0,0,1,46,64.18l-.34.15Z"></path><path class="cls-1" d="M15.28,64.33c-.09,0-.17-.09-.26-.12a2.85,2.85,0,0,1-1.5-1.48l.61-.39a3.66,3.66,0,0,0,.23.33,4.45,4.45,0,0,0,.54.61,1.3,1.3,0,0,0,1.46.18,1.21,1.21,0,0,0,.56-1.84,6.24,6.24,0,0,0-1-1c-.38-.33-.79-.63-1.18-1a2,2,0,0,1-.72-1.1,1.78,1.78,0,0,1,1.65-2.24,2,2,0,0,1,1.47.49c.24.21.45.46.7.72l-.61.5-.46-.5a1.28,1.28,0,0,0-1.14-.41,1,1,0,0,0-.84,1.24,1.51,1.51,0,0,0,.56.8c.33.26.68.5,1,.77s.67.55,1,.86A2.13,2.13,0,0,1,18,62.07a2,2,0,0,1-1.34,2.13l-.3.13Z"></path><path class="cls-1" d="M183.83,4.45h.09V50.23h-.09c0-.19,0-.38,0-.56V5C183.84,4.8,183.84,4.63,183.83,4.45Z"></path><path class="cls-1" d="M0,56.54a3.85,3.85,0,0,1,.47-.08H3.91a.69.69,0,0,1,.25,0c.08,0,.18.11.19.18a.64.64,0,0,1-.08.6l0-.47c0-.19-.09-.27-.27-.27H.37c-.15,0-.23.07-.23.22l0,.52H0Z"></path><path class="cls-1" d="M.14,34.28,0,34.05v-.89l.14-.37Z"></path><path class="cls-1" d="M183.85,56.54h.07v.74h-1.7c.13,0,.26-.05.4-.06h.88c.31,0,.33,0,.34-.35C183.85,56.76,183.85,56.65,183.85,56.54Z"></path><path class="cls-1" d="M183.83,4.45c0,.18,0,.35,0,.52V49.66c0,.18,0,.37,0,.56H173.35c0-.13,0-.22-.06-.31s0-.27,0-.41V21.31c0-.19.06-.4-.12-.6a.83.83,0,0,0-.15.19c-.07.17-.12.35-.18.52l-8.79,25.73-.9,2.63c-.16.48-.12.44-.63.44H156.4c-.55,0-.51.07-.7-.49l-3.16-9.3q-3.21-9.43-6.43-18.86c-.05-.14-.12-.27-.22-.49a2.79,2.79,0,0,0-.11.28c0,.14,0,.27,0,.41V50.18a3.82,3.82,0,0,1-.43,0H135.6l-.33,0-.06-.05a.05.05,0,0,1,0,0,2.13,2.13,0,0,1,0-.25q0-22.59,0-45.19a.52.52,0,0,1,0-.11s0,0,.06-.09l.37,0h13.06c.4,0,.4,0,.53.4q5,15.6,10,31.19a4,4,0,0,0,.17.44c.22-.07.22-.23.26-.37.41-1.24.81-2.49,1.21-3.74L169,7.1c.24-.75.49-1.5.73-2.26.13-.39.13-.39.54-.39h13.57Z"></path><path class="cls-1" d="M105.91,35.55c0,.19,0,.35,0,.5a11.38,11.38,0,0,0,.38,2.53,5.17,5.17,0,0,0,3.4,3.64,10.06,10.06,0,0,0,2.6.56,13.84,13.84,0,0,0,3.91-.12,6.36,6.36,0,0,0,1.9-.64,4.17,4.17,0,0,0,2.36-3.86,6.51,6.51,0,0,0-.12-1.4,4.17,4.17,0,0,0-1.81-2.7,13.48,13.48,0,0,0-2.65-1.41c-1.17-.47-2.35-.93-3.54-1.34a65.36,65.36,0,0,1-7.43-3,27.1,27.1,0,0,1-4.51-2.71,10,10,0,0,1-3.9-6.44,13.18,13.18,0,0,1,.12-5.45,10.39,10.39,0,0,1,2.47-4.59,15.4,15.4,0,0,1,6.14-4,20.9,20.9,0,0,1,5.41-1.21,29.35,29.35,0,0,1,4.78-.05A20.52,20.52,0,0,1,123.68,6a13.34,13.34,0,0,1,4.42,3.55,11.33,11.33,0,0,1,2.32,5.58c.1.77.11,1.55.16,2.33a.68.68,0,0,1,0,.29.31.31,0,0,1-.19.18.91.91,0,0,1-.33,0h-9.8c0-.19,0-.34,0-.5a7.76,7.76,0,0,0-.36-2.08,4.53,4.53,0,0,0-2.58-2.85,8.18,8.18,0,0,0-2.39-.62,11,11,0,0,0-3.76.1A5.6,5.6,0,0,0,108,13.76a4.27,4.27,0,0,0-1,4.09,3.7,3.7,0,0,0,1.57,2.09,16.47,16.47,0,0,0,2.8,1.52c1.09.48,2.2.95,3.31,1.39.59.24,1.2.4,1.8.59a39.53,39.53,0,0,1,7.65,3.3,20.36,20.36,0,0,1,3.06,2.16,10.86,10.86,0,0,1,3.68,6.67,14.15,14.15,0,0,1-.11,5.31,10.6,10.6,0,0,1-4,6.3,16.64,16.64,0,0,1-6.34,3,26.08,26.08,0,0,1-5,.69,31.26,31.26,0,0,1-3.49,0A22.45,22.45,0,0,1,101.2,47.5a11.67,11.67,0,0,1-5.42-8.22A16.88,16.88,0,0,1,95.54,36c0-.1,0-.2,0-.3a.21.21,0,0,1,.22-.21h9.72Z"></path><path class="cls-1" d="M82.79,12.62c0,2.14,0,4.23,0,6.31V50.14c-.36.11-10.23.11-10.59,0,0-.17,0-.35,0-.53V13.22c0-.66,0-.6-.6-.6H60.35c-.11-.32-.13-7.7,0-8.11l0,0,0,0,.14,0H94.75l.06,0c.09.29.1,7.69,0,8.1-.65.06-1.32,0-2,0h-10Z"></path><path class="cls-1" d="M165.36,64.1l-.2.06c-.46,0-.5,0-.57-.45L164,59.2a.68.68,0,0,0-.14-.36c-.06.11-.13.23-.18.34-.75,1.51-1.49,3-2.24,4.52-.08.16-.2.4-.32.42s-.25-.27-.33-.43L158.42,59a.62.62,0,0,0-.15-.22c-.31,1.77-.5,3.56-.78,5.34h-.73c.35-2.55.69-5.06,1.06-7.63a1,1,0,0,1,.22.16,2.8,2.8,0,0,1,.15.3l2.64,5.31c.06.13.13.26.23.45a2.2,2.2,0,0,0,.2-.3c.88-1.77,1.75-3.55,2.62-5.32.09-.19.19-.37.29-.55h.08a1.13,1.13,0,0,1,.08.24l.75,5.17c.08.59.17,1.18.25,1.77C165.35,63.85,165.35,64,165.36,64.1Z"></path><path class="cls-1" d="M109.79,58.81l-.21,1.54c-.15,1.16-.3,2.33-.46,3.49,0,.28-.07.31-.34.32l-.45,0c.35-2.56.7-5.07,1.06-7.64.12.08.19.11.22.16s.16.31.24.46l2.61,5.25c.05.11.11.21.21.39l1-2.11c.34-.69.67-1.38,1-2.06s.67-1.37,1.07-2a20.32,20.32,0,0,1,.44,2.51c.14.83.25,1.67.36,2.5l.36,2.53-.22.07c-.53,0-.51,0-.57-.45-.2-1.53-.43-3.06-.64-4.59,0-.09,0-.18-.09-.36-.1.19-.17.31-.22.42-.77,1.54-1.53,3.09-2.29,4.62-.06.13-.16.31-.26.33s-.22-.2-.29-.34l-2.31-4.65-.18-.35Z"></path><path class="cls-1" d="M178.56,56.56c.1.4.08,7.28,0,7.56-.16,0-.22-.09-.29-.18-.87-1-1.73-2-2.59-3L173.6,58.6a1.09,1.09,0,0,1-.1-.19.53.53,0,0,0-.12.45v5.23a1.83,1.83,0,0,1-.23.07c-.54,0-.57,0-.57-.53q0-3.3,0-6.6c0-.16,0-.31,0-.46.21,0,.28.1.36.19l1.8,2.07,2.7,3.11c.09.1.19.19.34.36,0-.2,0-.33,0-.46V57.06c0-.56,0-.59.59-.54Z"></path><path class="cls-1" d="M127.14,58.42c0,.23,0,.38,0,.52v4.71c0,.52,0,.55-.54.51l-.17,0c-.09-.37-.08-7.26,0-7.56.17,0,.23.11.32.2l2,2.35,2.55,2.94c.06.07.14.13.28.26V57.12a2.8,2.8,0,0,1,0-.29c0-.27,0-.3.3-.31l.39,0c.09.37.09,7.27,0,7.57-.18,0-.25-.14-.34-.24l-2.25-2.57-2.24-2.57C127.38,58.65,127.29,58.57,127.14,58.42Z"></path><path class="cls-1" d="M6.23,60.68v3.39a1.2,1.2,0,0,1-.72.07,3.15,3.15,0,0,1,0-.41v-6.9c0-.27,0-.3.3-.31s.52,0,.78,0c.51,0,1,0,1.52,0a2.51,2.51,0,0,1,.55.06,2,2,0,0,1,.1,3.87c-.33.08-.66.11-1,.16a2.15,2.15,0,0,0,.47.7c.16.24.34.46.52.68l.54.7.53.68.51.68a.83.83,0,0,1-1.11-.24l-2.29-3A.47.47,0,0,0,6.23,60.68Zm.06-3.35a11.17,11.17,0,0,0,0,2.52,8.35,8.35,0,0,0,2.23-.1,1.21,1.21,0,0,0,.92-1.23,1.14,1.14,0,0,0-1-1.18c-.7-.08-1.42,0-2.13-.05C6.33,57.29,6.31,57.31,6.29,57.33Z"></path><path class="cls-1" d="M58.38,59.69h3.84a3.28,3.28,0,0,0,0-.43c0-.76,0-1.51,0-2.26,0-.15,0-.29,0-.46H63c0,.16,0,.29,0,.42v7a.21.21,0,0,1-.23.23h-.19c-.33,0-.36,0-.36-.36,0-.9,0-1.8,0-2.71v-.6c-1.3-.05-2.55,0-3.85,0,0,.18,0,.32,0,.46v3.16l-.14.07c-.58.07-.62,0-.62-.54V56.86c0-.31.05-.34.35-.34s.41,0,.41.39v2.78Z"></path><path class="cls-1" d="M152.17,57.29c0,.81,0,1.56,0,2.35h3.46a1.21,1.21,0,0,1,.08.72l-.46,0h-2.6l-.42,0a17.28,17.28,0,0,0,0,3c.14,0,.28,0,.43,0h2.59l.47,0v.68l-.4,0c-1.17,0-2.33,0-3.49,0h-.22a.2.2,0,0,1-.21-.21,2.35,2.35,0,0,1,0-.26V57a4.26,4.26,0,0,1,0-.47l.38,0c1.18,0,2.35,0,3.53,0h.18c.17,0,.25.09.25.26a2.35,2.35,0,0,1,0,.26c0,.13-.06.21-.2.21h-2.89Z"></path><path class="cls-1" d="M167.67,57.28c0,.82,0,1.56,0,2.36,1.19,0,2.33,0,3.47,0a1,1,0,0,1,.05.7c-.14,0-.28,0-.43,0h-3a14.74,14.74,0,0,0,0,3,2.71,2.71,0,0,0,.41,0h2.6l.47,0v.69l-.37,0c-1.18,0-2.35,0-3.52,0-.41,0-.42,0-.43-.41q0-3.42,0-6.82c0-.12,0-.24,0-.39l.39,0c1.17,0,2.35,0,3.52,0H171a.21.21,0,0,1,.21.22v.15c0,.32,0,.37-.35.37h-2.52Z"></path><path class="cls-1" d="M133.57,64.13c.06-.15.09-.25.14-.35L137,56.92c.07-.15.09-.4.31-.36s.2.22.27.36l3.16,6.78c.06.12.11.25.17.39a.93.93,0,0,1-.69,0c-.1,0-.17-.17-.22-.27-.3-.6-.6-1.2-.86-1.81a.58.58,0,0,0-.64-.41c-.86,0-1.71,0-2.56,0a.45.45,0,0,0-.46.29c-.27.61-.58,1.2-.84,1.81a.57.57,0,0,1-.71.42Zm3.64-6c-.16.34-.29.63-.43.91s-.29.6-.42.91a3.26,3.26,0,0,0-.36.86,11.81,11.81,0,0,0,2.46,0A18.3,18.3,0,0,0,137.21,58.17Z"></path><path class="cls-1" d="M19,64.12c.06-.17.11-.29.16-.41l3.23-6.84c.06-.12.16-.29.26-.31s.21.17.27.3c1.07,2.28,2.13,4.57,3.2,6.85l.16.39a1.3,1.3,0,0,1-.64.05c-.17,0-.21-.15-.27-.27-.29-.61-.6-1.22-.87-1.85a.56.56,0,0,0-.61-.39q-1.24,0-2.49,0a.57.57,0,0,0-.61.4c-.24.58-.55,1.13-.79,1.71a.56.56,0,0,1-.68.41Zm3.7-5.92a13.44,13.44,0,0,0-1.25,2.65,9.65,9.65,0,0,0,2.47-.05"></path><path class="cls-1" d="M125.12,64.16h-.66c-.16,0-.21-.15-.26-.27-.27-.56-.53-1.12-.8-1.67s-.15-.56-.91-.56-1.51,0-2.26,0a.56.56,0,0,0-.61.4c-.26.59-.56,1.16-.81,1.75a.53.53,0,0,1-.62.38l-.37,0c.05-.13.08-.24.12-.33,1.09-2.32,2.19-4.63,3.28-6.94.06-.13.09-.33.27-.31s.19.18.24.29c1.07,2.28,2.14,4.57,3.2,6.85C125,63.81,125,63.94,125.12,64.16Zm-4.92-3.33a9.4,9.4,0,0,0,2.55,0l-1.22-2.6h-.09Z"></path><path class="cls-1" d="M28.26,60.73v.41c0,.87,0,1.75,0,2.63,0,.12.06.31-.11.35a1.61,1.61,0,0,1-.58,0s-.08-.09-.08-.15a1.77,1.77,0,0,1,0-.33V57c0-.15,0-.31,0-.46l.17-.06c.55-.06.6,0,.6.53v2.27l.29-.22c.77-.72,1.56-1.41,2.29-2.17a1.35,1.35,0,0,1,1.35-.38c0,.2-.19.28-.31.39L29,59.61a2.66,2.66,0,0,1-.35.27l.28.34c1.11,1.19,2.23,2.37,3.35,3.56l.29.34a2.29,2.29,0,0,1-.9,0c-.1,0-.2-.14-.28-.22l-2.8-3-.25-.26Z"></path><path class="cls-1" d="M104.36,59.68v.68l-.4,0h-2.59c0,.18-.05.33-.05.47v2.78c0,.1,0,.2,0,.3s-.08.22-.23.22h-.3c-.17,0-.24-.09-.24-.25V56.57a12.16,12.16,0,0,1,1.9,0c.63,0,1.26,0,1.91,0v.71l-.44,0h-2.19c-.37,0-.39,0-.4.41v1.59c0,.11,0,.22,0,.36l.46,0h2.11Z"></path><path class="cls-1" d="M183.85,56.54c0,.11,0,.22,0,.33,0,.31,0,.34-.34.35h-.88c-.14,0-.27,0-.4.06s0,.32,0,.48v5.9c0,.5-.08.56-.56.5-.15,0-.23-.08-.23-.23s0-.22,0-.33V57.81c0-.16,0-.32,0-.51l-.41,0c-.32,0-.64,0-1,0s-.29,0-.3-.31a1.62,1.62,0,0,1,0-.22.68.68,0,0,1,0-.17,2.36,2.36,0,0,1,.28,0h3.67Z"></path><path class="cls-1" d="M83.44,56.54h.72c0,.19,0,.34,0,.5v5.85c0,.16,0,.31,0,.5l.43,0h2c.52,0,.57.07.5.58a.69.69,0,0,1-.06.13c-.11,0-.23,0-.35,0q-1.44,0-2.88,0c-.39,0-.41,0-.41-.39V56.92C83.41,56.81,83.43,56.7,83.44,56.54Z"></path><path class="cls-1" d="M34.71,57.25H33v-.66a28.17,28.17,0,0,1,4.11,0v.64c-.53.1-1.08,0-1.65.08,0,.77,0,1.52,0,2.27v4.56h-.77Z"></path><path class="cls-1" d="M.17,57.27l0-.52c0-.15.08-.22.23-.22H4c.18,0,.28.08.27.27l0,.47c-.53,0-1.07,0-1.66,0v6.81a.94.94,0,0,1-.77,0v-6.8C1.25,57.24.71,57.27.17,57.27Z"></path><path class="cls-1" d="M38.93,64.13h-.71V56.59a1,1,0,0,1,.7,0c0,.13,0,.26,0,.39q0,3.4,0,6.81C39,63.87,38.94,64,38.93,64.13Z"></path><path class="cls-1" d="M11.81,56.55h.66c.08.3.11,7.08,0,7.55a.87.87,0,0,1-.69,0Z"></path><path class="cls-1" d="M26.05.45V.16l.13.2V.74Z"></path><path class="cls-1" d="M26.18.36l-.13-.2V0A.34.34,0,0,1,26.18.36Z"></path></g></g></svg> 